<svg width="16" height="14" viewBox="0 0 16 14" fill="none" xmlns="http://www.w3.org/2000/svg">
<path fill-rule="evenodd" clip-rule="evenodd" d="M1.76979 2.9968C1.63983 3.05593 1.52832 3.15337 1.46197 3.28605L0.190974 5.82678C0.0288442 6.15092 0.170161 6.54472 0.501276 6.69194L1.39495 7.08916V9.92529C1.39495 10.1765 1.54277 10.4041 1.77231 10.5062L7.49308 13.0482C7.6571 13.1209 7.84419 13.1209 8.00821 13.0482L13.7278 10.5062C13.9572 10.4041 14.1051 10.1765 14.105 9.9252V7.08906L14.9987 6.69185C15.3298 6.54462 15.4711 6.15083 15.309 5.82669L14.038 3.28596C13.9721 3.15434 13.8617 3.05738 13.7326 2.99801L8.00824 0.448535C7.93043 0.414005 7.84635 0.395438 7.7612 0.3939C7.66849 0.392244 7.57661 0.410929 7.49182 0.448535L1.76979 2.9968ZM7.75001 1.7258V5.41704L3.59558 3.5713L7.75001 1.7258ZM2.32713 4.39683L6.88358 6.42254L6.18115 7.82635L1.62469 5.80194L2.32713 4.39683ZM13.1729 4.39683L13.8754 5.80194L9.31899 7.82635L8.61643 6.42254L13.1729 4.39683ZM2.66619 7.65395L6.2212 9.23395C6.53138 9.37124 6.89466 9.24057 7.04651 8.93736L7.11487 8.80078V11.4892L2.66618 9.51199L2.66619 7.65395ZM12.8341 7.65395V9.5121L8.38545 11.4893V8.80089L8.45368 8.93747C8.60552 9.24081 8.96894 9.37135 9.27912 9.23417L12.8341 7.65395Z" fill="black"/>
<path fill-rule="evenodd" clip-rule="evenodd" d="M1.76979 2.9968C1.63983 3.05593 1.52832 3.15337 1.46197 3.28605L0.190974 5.82678C0.0288442 6.15092 0.170161 6.54472 0.501276 6.69194L1.39495 7.08916V9.92529C1.39495 10.1765 1.54277 10.4041 1.77231 10.5062L7.49308 13.0482C7.6571 13.1209 7.84419 13.1209 8.00821 13.0482L13.7278 10.5062C13.9572 10.4041 14.1051 10.1765 14.105 9.9252V7.08906L14.9987 6.69185C15.3298 6.54462 15.4711 6.15083 15.309 5.82669L14.038 3.28596C13.9721 3.15434 13.8617 3.05738 13.7326 2.99801L8.00824 0.448535C7.93043 0.414005 7.84635 0.395438 7.7612 0.3939C7.66849 0.392244 7.57661 0.410929 7.49182 0.448535L1.76979 2.9968ZM7.75001 1.7258V5.41704L3.59558 3.5713L7.75001 1.7258ZM2.32713 4.39683L6.88358 6.42254L6.18115 7.82635L1.62469 5.80194L2.32713 4.39683ZM13.1729 4.39683L13.8754 5.80194L9.31899 7.82635L8.61643 6.42254L13.1729 4.39683ZM2.66619 7.65395L6.2212 9.23395C6.53138 9.37124 6.89466 9.24057 7.04651 8.93736L7.11487 8.80078V11.4892L2.66618 9.51199L2.66619 7.65395ZM12.8341 7.65395V9.5121L8.38545 11.4893V8.80089L8.45368 8.93747C8.60552 9.24081 8.96894 9.37135 9.27912 9.23417L12.8341 7.65395Z" fill="black"/>
</svg>